<svg width="195" height="63" viewBox="0 0 195 63" fill="none" xmlns="http://www.w3.org/2000/svg">
<path fill-rule="evenodd" clip-rule="evenodd" d="M125.125 28.3491C128.744 28.3491 131.678 25.4151 131.678 21.7959C131.678 18.1766 128.744 15.2426 125.125 15.2426C121.506 15.2426 118.572 18.1766 118.572 21.7959C118.572 25.4151 121.506 28.3491 125.125 28.3491ZM125.125 29.3671C129.306 29.3671 132.696 25.9774 132.696 21.7959C132.696 17.6144 129.306 14.2246 125.125 14.2246C120.943 14.2246 117.554 17.6144 117.554 21.7959C117.554 25.9774 120.943 29.3671 125.125 29.3671Z" fill="#FF9F1B" fill-opacity="0.8"/>
<path d="M131.178 21.7959C131.178 25.139 128.468 27.8491 125.125 27.8491C121.782 27.8491 119.072 25.139 119.072 21.7959C119.072 18.4527 121.782 15.7426 125.125 15.7426C128.468 15.7426 131.178 18.4527 131.178 21.7959ZM125.125 29.8671C129.583 29.8671 133.196 26.2535 133.196 21.7959C133.196 17.3382 129.583 13.7246 125.125 13.7246C120.667 13.7246 117.054 17.3382 117.054 21.7959C117.054 26.2535 120.667 29.8671 125.125 29.8671Z" stroke="#FF9F1B" stroke-opacity="0.8"/>
<path d="M127.684 22.9089L127.116 23.8919L121.757 20.7975L122.324 19.8145L127.684 22.9089ZM124.394 21.0092L121.617 25.8179L120.321 25.0696L123.097 20.2609L124.394 21.0092ZM125.618 21.7159L126.904 22.4588L124.997 25.7617C124.926 25.8902 124.889 26.0008 124.885 26.0935C124.883 26.184 124.912 26.2646 124.971 26.3351C125.031 26.4056 125.117 26.4734 125.229 26.5384C125.302 26.5806 125.373 26.6173 125.441 26.6483C125.51 26.6794 125.569 26.7068 125.62 26.7303L125.054 27.7102C124.923 27.6818 124.784 27.6405 124.637 27.5864C124.491 27.5355 124.34 27.4649 124.183 27.3745C123.764 27.1323 123.492 26.831 123.369 26.4705C123.248 26.1113 123.331 25.6806 123.619 25.1785L125.618 21.7159Z" fill="#FF9F1B" fill-opacity="0.8"/>
<path d="M121.866 20.9114L122.433 19.9284L127.793 23.0228L127.226 24.0059L121.866 20.9114ZM125.156 22.8111L127.933 18.0024L129.229 18.7507L126.452 23.5594L125.156 22.8111ZM123.932 22.1044L122.645 21.3615L124.552 18.0586C124.624 17.9301 124.661 17.8195 124.665 17.7269C124.667 17.6363 124.638 17.5558 124.579 17.4852C124.519 17.4147 124.433 17.3469 124.32 17.2819C124.247 17.2397 124.177 17.2031 124.108 17.172C124.04 17.1409 123.981 17.1136 123.93 17.09L124.496 16.1101C124.627 16.1385 124.766 16.1798 124.913 16.2339C125.059 16.2848 125.21 16.3554 125.367 16.4458C125.786 16.688 126.057 16.9893 126.18 17.3498C126.301 17.709 126.218 18.1397 125.931 18.6418L123.932 22.1044Z" fill="#FF9F1B" fill-opacity="0.8"/>
<path d="M17.4436 23.0263C17.4436 23.0263 23.6792 22.9371 36.1502 22.7586C37.3234 22.7586 38.2032 23.0263 38.7898 23.5619C39.4019 24.0975 39.7079 25.0156 39.7079 26.3163C39.7079 27.6169 39.4274 28.8156 38.8663 29.9122C38.1522 29.5807 37.1576 29.3384 35.8824 29.1854C34.4543 35.0256 33.7402 39.0678 33.7402 41.3121C33.7402 42.9443 34.1355 44.1047 34.9261 44.7933C33.4979 46.043 31.9805 46.6678 30.3738 46.6678C28.7926 46.6678 27.6449 46.2725 26.9308 45.4819C26.2167 44.6913 25.8597 43.5054 25.8597 41.9242C25.8597 40.3175 26.6503 36.084 28.2315 29.2236L21.8812 29.6062C20.5295 35.3189 19.8537 39.1061 19.8537 40.9678C19.8537 42.8296 20.249 44.1047 21.0396 44.7933C19.6114 46.043 18.094 46.6678 16.4873 46.6678C14.9061 46.6678 13.7584 46.2725 13.0443 45.4819C12.3303 44.6913 11.9732 43.4926 11.9732 41.8859C11.9732 40.2537 12.6873 36.339 14.1155 30.1417C13.6819 30.1672 13.1081 30.18 12.394 30.18C11.1444 30.18 10.5195 29.2491 10.5195 27.3874C10.5195 25.5002 11.0041 23.7532 11.9732 22.1465C13.3504 22.7331 15.1739 23.0263 17.4436 23.0263Z" fill="#FF9F1B" fill-opacity="0.8"/>
<path d="M45.5195 16.0296C45.5195 14.2443 45.9021 12.4336 46.6672 10.5974C47.4323 8.73565 48.5162 7.01418 49.9188 5.43298C51.3215 3.85179 53.145 2.56388 55.3893 1.56925C57.659 0.549126 59.9926 0.0390625 62.3899 0.0390625C64.8127 0.0390625 66.6999 0.485368 68.0516 1.37798C69.4288 2.27059 70.1173 3.50749 70.1173 5.08869C70.1173 6.66989 69.5945 7.90679 68.5489 8.7994C67.5288 9.66651 66.3556 10.1001 65.0295 10.1001C63.7033 10.1001 62.5046 9.81953 61.4335 9.25846C60.3879 8.67189 59.5463 7.84303 58.9087 6.7719C57.5315 7.43498 56.3456 8.73565 55.351 10.6739C54.3564 12.6121 53.8591 14.5631 53.8591 16.5269C53.8591 18.4651 54.1779 20.008 54.8154 21.1557C55.453 22.2778 56.3584 22.8389 57.5315 22.8389C58.7047 22.8389 59.7376 22.2396 60.6302 21.0409C61.5483 19.8423 62.0073 18.4013 62.0073 16.7181C64.5832 16.7181 66.4194 16.9222 67.516 17.3302C68.6382 17.7383 69.1992 18.6181 69.1992 19.9698C69.1992 22.0866 68.0516 24.0758 65.7563 25.9375C63.461 27.7993 60.5792 28.7301 57.1107 28.7301C53.6423 28.7301 50.8369 27.659 48.6947 25.5167C46.5779 23.3745 45.5195 20.2121 45.5195 16.0296Z" fill="white" fill-opacity="0.8"/>
<path d="M95.2766 40.7795C95.2766 39.7084 95.4551 37.9486 95.8122 35.5003H87.1666C86.835 37.4131 86.6693 38.7265 86.6693 39.4406C86.6693 41.9144 87.0518 43.7634 87.8169 44.9875C86.2867 46.1352 84.6928 46.709 83.0351 46.709C81.3774 46.709 80.1915 46.2372 79.4774 45.2936C78.7633 44.3244 78.4062 42.8963 78.4062 41.009C78.4062 39.0963 79.2096 33.7024 80.8163 24.8273L78.7888 20.734C81.6707 18.8723 84.2975 17.9414 86.6693 17.9414C88.633 17.9414 89.6149 19.1401 89.6149 21.5374C89.6149 22.2514 89.0793 25.3883 88.0082 30.948H96.5773C96.6793 30.3104 97.0491 28.2702 97.6867 24.8273L95.6592 20.734C98.541 18.8723 101.168 17.9414 103.54 17.9414C105.503 17.9414 106.485 19.1401 106.485 21.5374C106.485 22.328 105.988 25.2736 104.993 30.3742C104.024 35.4493 103.54 38.4715 103.54 39.4406C103.54 41.9144 103.922 43.7634 104.687 44.9875C103.157 46.1352 101.563 46.709 99.9054 46.709C98.2477 46.709 97.0618 46.2372 96.3477 45.2936C95.6336 44.3244 95.2766 42.8198 95.2766 40.7795Z" fill="white" fill-opacity="0.8"/>
<path d="M122.21 62.5762C120.552 62.5762 119.366 62.1044 118.652 61.1608C117.938 60.1916 117.581 58.7635 117.581 56.8762C117.581 54.9635 118.384 49.5696 119.991 40.6945L117.964 36.6012C120.845 34.7395 123.472 33.8086 125.844 33.8086C127.808 33.8086 128.79 35.0072 128.79 37.4045C128.79 38.1951 128.292 41.1408 127.298 46.2414C126.329 51.3165 125.844 54.3386 125.844 55.3078C125.844 57.7816 126.227 59.6306 126.992 60.8547C125.462 62.0024 123.868 62.5762 122.21 62.5762Z" fill="white" fill-opacity="0.8"/>
<path d="M148.275 46.709C146.592 46.709 145.394 46.2372 144.68 45.2936C143.965 44.3244 143.608 42.8963 143.608 41.009C143.608 39.0963 144.412 33.7024 146.018 24.8273L143.991 20.734C146.873 18.8723 149.5 17.9414 151.871 17.9414C153.835 17.9414 154.817 19.1401 154.817 21.5374C154.817 22.2514 154.32 25.2353 153.325 30.489C152.356 35.7426 151.871 39.0835 151.871 40.5117H156.003C157.941 40.2312 159.892 39.7339 161.856 39.0198C162.009 39.4788 162.085 40.1037 162.085 40.8943C162.085 42.399 161.639 43.7379 160.747 44.911C159.879 46.0842 158.668 46.6707 157.112 46.6707C156.067 46.6707 154.256 46.3902 151.68 45.8291C150.609 46.4157 149.474 46.709 148.275 46.709Z" fill="white" fill-opacity="0.8"/>
<path d="M176.22 28.7676C174.537 28.7676 173.338 28.2958 172.624 27.3522C171.91 26.383 171.553 24.9549 171.553 23.0676C171.553 21.1549 172.356 15.761 173.963 6.88586L171.935 2.7926C174.817 0.930866 177.444 0 179.816 0C181.78 0 182.761 1.19865 182.761 3.59595C182.761 4.31004 182.264 7.29391 181.269 12.5476C180.3 17.8012 179.816 21.1421 179.816 22.5703H183.947C185.886 22.2898 187.837 21.7925 189.8 21.0784C189.953 21.5374 190.03 22.1623 190.03 22.9529C190.03 24.4575 189.583 25.7965 188.691 26.9696C187.824 28.1428 186.612 28.7293 185.057 28.7293C184.011 28.7293 182.2 28.4488 179.624 27.8877C178.553 28.4743 177.418 28.7676 176.22 28.7676Z" fill="white" fill-opacity="0.8"/>
<path fill-rule="evenodd" clip-rule="evenodd" d="M0 9.5045C0 6.86356 2.14091 4.72266 4.78185 4.72266H33.3326V7.91055H4.78185C3.90153 7.91055 3.1879 8.62419 3.1879 9.5045V50.7368C3.1879 51.6171 3.90153 52.3307 4.78185 52.3307H107.85V55.5186H4.78185C2.1409 55.5186 0 53.3777 0 50.7368V9.5045Z" fill="white" fill-opacity="0.8"/>
<path fill-rule="evenodd" clip-rule="evenodd" d="M185.126 4.72266H190.218C192.859 4.72266 195 6.86357 195 9.5045V50.7368C195 53.3777 192.859 55.5186 190.218 55.5186H135.448V52.3307H190.218C191.098 52.3307 191.812 51.6171 191.812 50.7368V9.5045C191.812 8.62419 191.098 7.91055 190.218 7.91055H185.126V4.72266Z" fill="white" fill-opacity="0.8"/>
<path fill-rule="evenodd" clip-rule="evenodd" d="M162.357 7.91055H74.7305V4.72266H162.357V7.91055Z" fill="white" fill-opacity="0.8"/>
</svg>
