<svg width="195" height="64" viewBox="0 0 195 64" fill="none" xmlns="http://www.w3.org/2000/svg">
<path d="M131.178 22.3857C131.178 25.7288 128.468 28.439 125.125 28.439C121.782 28.439 119.072 25.7288 119.072 22.3857C119.072 19.0426 121.782 16.3324 125.125 16.3324C128.468 16.3324 131.178 19.0426 131.178 22.3857ZM125.125 30.457C129.583 30.457 133.196 26.8433 133.196 22.3857C133.196 17.9281 129.583 14.3145 125.125 14.3145C120.667 14.3145 117.054 17.9281 117.054 22.3857C117.054 26.8433 120.667 30.457 125.125 30.457Z" fill="#FF9F1B" stroke="#FF9F1B"/>
<path d="M127.684 23.4987L127.116 24.4818L121.757 21.3873L122.324 20.4043L127.684 23.4987ZM124.394 21.5991L121.617 26.4078L120.321 25.6595L123.097 20.8507L124.394 21.5991ZM125.618 22.3058L126.904 23.0487L124.997 26.3515C124.926 26.4801 124.889 26.5906 124.885 26.6833C124.883 26.7739 124.912 26.8544 124.971 26.9249C125.031 26.9954 125.117 27.0632 125.229 27.1283C125.302 27.1705 125.373 27.2071 125.441 27.2382C125.51 27.2693 125.569 27.2966 125.62 27.3201L125.054 28.3C124.923 28.2717 124.784 28.2304 124.637 28.1762C124.491 28.1254 124.34 28.0547 124.183 27.9644C123.764 27.7222 123.492 27.4208 123.369 27.0604C123.248 26.7011 123.331 26.2704 123.619 25.7683L125.618 22.3058Z" fill="#FF9F1B"/>
<path d="M121.866 21.5013L122.433 20.5182L127.793 23.6127L127.226 24.5957L121.866 21.5013ZM125.156 23.4009L127.933 18.5922L129.229 19.3405L126.452 24.1493L125.156 23.4009ZM123.932 22.6942L122.645 21.9513L124.552 18.6485C124.624 18.5199 124.661 18.4094 124.665 18.3167C124.667 18.2261 124.638 18.1456 124.579 18.0751C124.519 18.0046 124.433 17.9368 124.32 17.8717C124.247 17.8295 124.177 17.7929 124.108 17.7618C124.04 17.7307 123.981 17.7034 123.93 17.6799L124.496 16.7C124.627 16.7283 124.766 16.7696 124.913 16.8238C125.059 16.8746 125.21 16.9453 125.367 17.0356C125.786 17.2778 126.057 17.5792 126.18 17.9396C126.301 18.2989 126.218 18.7296 125.931 19.2317L123.932 22.6942Z" fill="#FF9F1B"/>
<path d="M17.4436 23.6162C17.4436 23.6162 23.6792 23.5269 36.1502 23.3484C37.3234 23.3484 38.2032 23.6162 38.7898 24.1518C39.4019 24.6873 39.7079 25.6054 39.7079 26.9061C39.7079 28.2068 39.4274 29.4054 38.8663 30.502C38.1522 30.1705 37.1576 29.9282 35.8824 29.7752C34.4543 35.6154 33.7402 39.6577 33.7402 41.902C33.7402 43.5342 34.1355 44.6946 34.9261 45.3832C33.4979 46.6328 31.9805 47.2576 30.3738 47.2576C28.7926 47.2576 27.6449 46.8623 26.9308 46.0717C26.2167 45.2811 25.8597 44.0952 25.8597 42.514C25.8597 40.9073 26.6503 36.6738 28.2315 29.8135L21.8812 30.196C20.5295 35.9087 19.8537 39.6959 19.8537 41.5577C19.8537 43.4194 20.249 44.6946 21.0396 45.3832C19.6114 46.6328 18.094 47.2576 16.4873 47.2576C14.9061 47.2576 13.7584 46.8623 13.0443 46.0717C12.3303 45.2811 11.9732 44.0825 11.9732 42.4758C11.9732 40.8436 12.6873 36.9288 14.1155 30.7316C13.6819 30.7571 13.1081 30.7698 12.394 30.7698C11.1444 30.7698 10.5195 29.839 10.5195 27.9772C10.5195 26.09 11.0041 24.343 11.9732 22.7363C13.3504 23.3229 15.1739 23.6162 17.4436 23.6162Z" fill="#FF9F1B"/>
<path d="M45.5195 16.6194C45.5195 14.8342 45.9021 13.0234 46.6672 11.1872C47.4323 9.32549 48.5162 7.60403 49.9188 6.02283C51.3215 4.44163 53.145 3.15372 55.3893 2.1591C57.659 1.13897 59.9926 0.628906 62.3899 0.628906C64.8127 0.628906 66.6999 1.07521 68.0516 1.96782C69.4288 2.86043 70.1173 4.09734 70.1173 5.67853C70.1173 7.25973 69.5945 8.49664 68.5489 9.38925C67.5288 10.2564 66.3556 10.6899 65.0295 10.6899C63.7033 10.6899 62.5046 10.4094 61.4335 9.8483C60.3879 9.26173 59.5463 8.43288 58.9087 7.36174C57.5315 8.02483 56.3456 9.32549 55.351 11.2637C54.3564 13.202 53.8591 15.153 53.8591 17.1167C53.8591 19.055 54.1779 20.5979 54.8154 21.7455C55.453 22.8677 56.3584 23.4287 57.5315 23.4287C58.7047 23.4287 59.7376 22.8294 60.6302 21.6308C61.5483 20.4321 62.0073 18.9912 62.0073 17.308C64.5832 17.308 66.4194 17.512 67.516 17.9201C68.6382 18.3281 69.1992 19.208 69.1992 20.5596C69.1992 22.6764 68.0516 24.6657 65.7563 26.5274C63.461 28.3891 60.5792 29.32 57.1107 29.32C53.6423 29.32 50.8369 28.2488 48.6947 26.1066C46.5779 23.9643 45.5195 20.8019 45.5195 16.6194Z" fill="white"/>
<path d="M95.2766 41.3693C95.2766 40.2982 95.4551 38.5385 95.8122 36.0902H87.1666C86.835 38.0029 86.6693 39.3163 86.6693 40.0304C86.6693 42.5042 87.0518 44.3532 87.8169 45.5774C86.2867 46.725 84.6928 47.2988 83.0351 47.2988C81.3774 47.2988 80.1915 46.827 79.4774 45.8834C78.7633 44.9143 78.4062 43.4861 78.4062 41.5989C78.4062 39.6861 79.2096 34.2922 80.8163 25.4171L78.7888 21.3238C81.6707 19.4621 84.2975 18.5312 86.6693 18.5312C88.633 18.5312 89.6149 19.7299 89.6149 22.1272C89.6149 22.8413 89.0793 25.9782 88.0082 31.5379H96.5773C96.6793 30.9003 97.0491 28.86 97.6867 25.4171L95.6592 21.3238C98.541 19.4621 101.168 18.5312 103.54 18.5312C105.503 18.5312 106.485 19.7299 106.485 22.1272C106.485 22.9178 105.988 25.8634 104.993 30.964C104.024 36.0392 103.54 39.0613 103.54 40.0304C103.54 42.5042 103.922 44.3532 104.687 45.5774C103.157 46.725 101.563 47.2988 99.9054 47.2988C98.2477 47.2988 97.0618 46.827 96.3477 45.8834C95.6336 44.9143 95.2766 43.4096 95.2766 41.3693Z" fill="white"/>
<path d="M122.21 63.166C120.552 63.166 119.366 62.6942 118.652 61.7506C117.938 60.7815 117.581 59.3533 117.581 57.4661C117.581 55.5533 118.384 50.1594 119.991 41.2843L117.964 37.191C120.845 35.3293 123.472 34.3984 125.844 34.3984C127.808 34.3984 128.79 35.5971 128.79 37.9944C128.79 38.785 128.292 41.7306 127.298 46.8312C126.329 51.9064 125.844 54.9285 125.844 55.8976C125.844 58.3714 126.227 60.2204 126.992 61.4446C125.462 62.5922 123.868 63.166 122.21 63.166Z" fill="white"/>
<path d="M148.275 47.2988C146.592 47.2988 145.394 46.827 144.68 45.8834C143.965 44.9143 143.608 43.4861 143.608 41.5989C143.608 39.6861 144.412 34.2922 146.018 25.4171L143.991 21.3238C146.873 19.4621 149.5 18.5312 151.871 18.5312C153.835 18.5312 154.817 19.7299 154.817 22.1272C154.817 22.8413 154.32 25.8252 153.325 31.0788C152.356 36.3325 151.871 39.6734 151.871 41.1016H156.003C157.941 40.821 159.892 40.3237 161.856 39.6096C162.009 40.0687 162.085 40.6935 162.085 41.4841C162.085 42.9888 161.639 44.3277 160.747 45.5009C159.879 46.674 158.668 47.2606 157.112 47.2606C156.067 47.2606 154.256 46.98 151.68 46.419C150.609 47.0055 149.474 47.2988 148.275 47.2988Z" fill="white"/>
<path d="M176.22 29.3574C174.537 29.3574 173.338 28.8856 172.624 27.942C171.91 26.9729 171.553 25.5447 171.553 23.6575C171.553 21.7447 172.356 16.3508 173.963 7.4757L171.935 3.38244C174.817 1.52071 177.444 0.589844 179.816 0.589844C181.78 0.589844 182.761 1.78849 182.761 4.18579C182.761 4.89988 182.264 7.88375 181.269 13.1374C180.3 18.3911 179.816 21.732 179.816 23.1602H183.947C185.886 22.8796 187.837 22.3823 189.8 21.6682C189.953 22.1273 190.03 22.7521 190.03 23.5427C190.03 25.0474 189.583 26.3863 188.691 27.5595C187.824 28.7326 186.612 29.3192 185.057 29.3192C184.011 29.3192 182.2 29.0386 179.624 28.4776C178.553 29.0641 177.418 29.3574 176.22 29.3574Z" fill="white"/>
<path fill-rule="evenodd" clip-rule="evenodd" d="M0 10.0943C0 7.4534 2.14091 5.3125 4.78185 5.3125H33.3326V8.5004H4.78185C3.90153 8.5004 3.1879 9.21403 3.1879 10.0943V51.3266C3.1879 52.2069 3.90153 52.9206 4.78185 52.9206H107.85V56.1085H4.78185C2.1409 56.1085 0 53.9675 0 51.3266V10.0943Z" fill="white"/>
<path fill-rule="evenodd" clip-rule="evenodd" d="M185.126 5.3125H190.218C192.859 5.3125 195 7.45341 195 10.0943V51.3266C195 53.9675 192.859 56.1085 190.218 56.1085H135.448V52.9206H190.218C191.098 52.9206 191.812 52.2069 191.812 51.3266V10.0943C191.812 9.21403 191.098 8.5004 190.218 8.5004H185.126V5.3125Z" fill="white"/>
<path fill-rule="evenodd" clip-rule="evenodd" d="M185.126 5.3125H190.218C192.859 5.3125 195 7.45341 195 10.0943V51.3266C195 53.9675 192.859 56.1085 190.218 56.1085H135.448V52.9206H190.218C191.098 52.9206 191.812 52.2069 191.812 51.3266V10.0943C191.812 9.21403 191.098 8.5004 190.218 8.5004H185.126V5.3125Z" fill="white"/>
<path fill-rule="evenodd" clip-rule="evenodd" d="M162.357 8.5004H74.7305V5.3125H162.357V8.5004Z" fill="white"/>
</svg>
